<svg width="48" height="48" viewBox="0 0 48 48" fill="none" xmlns="http://www.w3.org/2000/svg">
<path d="M38.8695 17.1353C38.8695 8.92299 32.2121 2.26562 23.9999 2.26562C15.7876 2.26562 9.13021 8.92299 9.13021 17.1353C7.00716 17.3996 4.99976 18.7874 4.99976 22.0092V29.7745C4.99976 33.4093 7.54412 34.731 9.9563 34.731H12.352C12.8082 34.731 13.1781 34.3611 13.1781 33.9049V17.9118C13.1781 17.4556 12.8082 17.0857 12.352 17.0857H10.7824C10.7824 9.78595 16.7001 3.86824 23.9999 3.86824C31.2996 3.86824 37.2173 9.78595 37.2173 17.0857H35.6477C35.1915 17.0857 34.8216 17.4556 34.8216 17.9118V33.8801C34.8216 34.3363 35.1915 34.7062 35.6477 34.7062H37.2173C36.986 40.3815 34.2599 41.7115 28.816 41.951V41.3976C28.816 40.485 28.0763 39.7454 27.1638 39.7454H21.9677C21.0551 39.7454 20.3155 40.485 20.3155 41.3976V44.0824C20.3155 44.9949 21.0551 45.7345 21.9677 45.7345H27.1803C28.0928 45.7345 28.8325 44.9949 28.8325 44.0824V43.6032C34.0699 43.3637 38.5969 42.2815 38.8695 34.6567C40.9925 34.3923 43 33.0045 43 29.7827V22.0175C43 18.7792 41.0008 17.3996 38.8695 17.1353ZM11.5259 18.6801V33.054H9.915C8.69238 33.054 6.61063 32.6245 6.61063 29.7497V21.9844C6.61063 19.1344 8.6676 18.6801 9.915 18.6801H11.5259ZM27.1803 42.835V44.0906H21.9677V41.4058H27.1803V42.835ZM41.3478 29.7745C41.3478 32.6245 39.2908 33.0788 38.0434 33.0788H36.4738V18.7379H38.0847C39.3073 18.7379 41.3891 19.1674 41.3891 22.0422L41.3478 29.7745Z" fill="#8CBC4F"/>
</svg>
