<svg width="48" height="48" viewBox="0 0 48 48" fill="none" xmlns="http://www.w3.org/2000/svg">
<g clip-path="url(#clip0_28_50)">
<path d="M3.24087 6.27675C3.84437 6.47967 4.50394 6.43301 5.07287 6.14715L5.78087 5.79275L16.1177 37.5431C16.3084 38.1174 16.7082 38.5989 17.2377 38.8919C15.7409 40.7479 15.5834 43.348 16.8452 45.3711C18.107 47.3941 20.5114 48.3963 22.8365 47.8685C25.1616 47.3406 26.8976 45.3984 27.1621 43.0289C27.4267 40.6593 26.1619 38.382 24.0105 37.3543L44.0001 30.2615C44.833 29.9947 45.4547 29.2959 45.623 28.4377C45.7912 27.5794 45.4793 26.6976 44.8088 26.1361C44.1384 25.5745 43.2155 25.4221 42.4001 25.7383L40.2729 26.4927L35.2081 12.0719C35.1377 11.8718 34.9908 11.7077 34.7995 11.6159C34.6082 11.5241 34.3883 11.512 34.1881 11.5823L31.7481 12.4383L28.4305 2.98555C28.3601 2.78535 28.2132 2.6213 28.0219 2.52948C27.8306 2.43767 27.6107 2.4256 27.4105 2.49595L23.3601 3.91995L20.3201 4.98635L16.2721 6.40715C16.0719 6.47747 15.9078 6.62445 15.816 6.81574C15.7242 7.00703 15.7121 7.22696 15.7825 7.42715L19.1065 16.8799L17.5817 17.4151C17.1652 17.5616 16.9461 18.0177 17.0921 18.4343L22.1761 32.9143L19.9193 33.7143L9.48167 1.65675C9.26544 0.992389 8.77045 0.455232 8.12595 0.185536C7.48144 -0.0841604 6.75141 -0.0596212 6.12647 0.252746L2.92647 1.85275C2.05788 2.28672 1.53636 3.2013 1.60519 4.16982C1.67402 5.13834 2.31964 5.96997 3.24087 6.27675ZM27.9249 15.4767L29.2849 19.3495L27.9393 19.0055C27.6264 18.9254 27.296 19.0412 27.1017 19.2991L26.2657 20.4095L24.9057 16.5367L26.4161 16.0063L27.9249 15.4767ZM23.7985 7.57435L23.3729 7.46635C23.06 7.38616 22.7296 7.50197 22.5353 7.75995L22.2721 8.11034L21.6113 6.22795L22.3745 5.95995L23.1369 5.69195L23.7985 7.57435ZM20.1017 6.75754L21.2577 10.0503C21.3551 10.329 21.598 10.5313 21.8897 10.5767C21.9302 10.5829 21.9711 10.5858 22.0121 10.5855C22.2639 10.5855 22.501 10.467 22.6521 10.2655L23.4937 9.14555L24.8537 9.49195C25.1395 9.56492 25.4422 9.47471 25.6415 9.25723C25.8407 9.03975 25.9041 8.73027 25.8065 8.45195L24.6465 5.16155L27.1857 4.27035L30.2081 12.8799L20.5849 16.2591L17.5625 7.64875L20.1017 6.75754ZM23.3953 17.0663L25.2505 22.3503C25.3483 22.6285 25.5912 22.8303 25.8826 22.8755C26.174 22.9206 26.4666 22.8018 26.6441 22.5663L28.0585 20.6879L30.3353 21.2703C30.6212 21.3437 30.9242 21.2537 31.1237 21.0361C31.3232 20.8185 31.3867 20.5088 31.2889 20.2303L29.4345 14.9503L33.9633 13.3599L38.7329 26.9439L23.6361 32.2399L18.8665 18.6559L23.3953 17.0663ZM21.6001 38.3999C23.6564 38.3733 25.4067 39.891 25.6716 41.9303C25.9365 43.9697 24.632 45.8842 22.6372 46.3838C20.6423 46.8834 18.5894 45.8097 17.8619 43.8862C17.1343 41.9627 17.9627 39.7992 19.7889 38.8535L20.8553 38.4751C21.1006 38.4269 21.35 38.4017 21.6001 38.3999ZM3.64167 3.28395L6.84167 1.68395C7.05013 1.57925 7.29392 1.57075 7.50916 1.6607C7.72441 1.75064 7.88967 1.93005 7.96167 2.15195L18.6521 34.9903C18.7189 35.1955 18.8657 35.365 19.0593 35.4604C19.2528 35.5557 19.4767 35.5688 19.6801 35.4967L42.9329 27.2455C43.2376 27.1387 43.5767 27.2256 43.7925 27.4657C44.0084 27.7059 44.0587 28.0523 43.9201 28.3439C43.8297 28.5359 43.666 28.6835 43.4657 28.7535L20.4657 36.9135C19.9782 37.0157 19.5068 37.1831 19.0641 37.4111L18.6641 37.5527C18.4607 37.6248 18.2368 37.6117 18.0433 37.5164C17.8497 37.421 17.7029 37.2515 17.6361 37.0463L7.01447 4.41435C6.94184 4.19239 6.77585 4.01325 6.56007 3.92395C6.46214 3.88346 6.35723 3.86253 6.25127 3.86235C6.12748 3.86099 6.00507 3.88837 5.89367 3.94235L4.35767 4.71995C3.96223 4.91877 3.48049 4.75938 3.28167 4.36395C3.08284 3.96851 3.24223 3.48677 3.63767 3.28795L3.64167 3.28395Z" fill="#8CBC4F"/>
<path d="M19.2 42.4C19.2 43.7255 20.2745 44.8 21.6 44.8C22.9254 44.8 24 43.7255 24 42.4C24 41.0745 22.9254 40 21.6 40C20.2745 40 19.2 41.0745 19.2 42.4ZM21.6 41.6C22.0418 41.6 22.4 41.9582 22.4 42.4C22.4 42.8418 22.0418 43.2 21.6 43.2C21.1581 43.2 20.8 42.8418 20.8 42.4C20.8 41.9582 21.1581 41.6 21.6 41.6Z" fill="#8CBC4F"/>
</g>
<defs>
<clipPath id="clip0_28_50">
<rect width="48" height="48" fill="white"/>
</clipPath>
</defs>
</svg>
