<svg width="48" height="48" viewBox="0 0 48 48" fill="none" xmlns="http://www.w3.org/2000/svg">
<path d="M36.75 21.75H11.25C10.8375 21.75 10.5 22.0875 10.5 22.5V42C10.5 42.4125 10.8375 42.75 11.25 42.75H36.75C37.1625 42.75 37.5 42.4125 37.5 42V22.5C37.5 22.0875 37.1625 21.75 36.75 21.75ZM36 41.25H12V23.25H36V41.25Z" fill="#8CBC4F"/>
<path d="M23.7674 38.2801H23.9999H24.2324C25.1024 38.2801 27.8249 38.1301 29.5874 36.3676C31.6649 34.2901 31.4999 30.8776 31.4924 30.7351C31.4699 30.3526 31.1699 30.0451 30.7874 30.0301C30.6899 30.0301 28.9199 29.9401 27.1574 30.6526C26.4974 28.2376 24.5999 26.4976 24.5024 26.4076C24.2174 26.1526 23.7824 26.1526 23.5049 26.4076C23.4074 26.4976 21.4949 28.2301 20.8424 30.6451C19.0874 29.9401 17.3249 30.0226 17.2199 30.0301C16.8374 30.0526 16.5299 30.3526 16.5149 30.7351C16.5074 30.8776 16.3424 34.2901 18.4199 36.3676C20.1824 38.1301 22.9049 38.2801 23.7749 38.2801H23.7674ZM28.5299 35.3101C27.4274 36.4126 25.7249 36.6901 24.7649 36.7576C24.8324 35.7976 25.1099 34.1026 26.2199 32.9926C27.3224 31.8901 29.0249 31.6126 29.9849 31.5451C29.9174 32.5051 29.6324 34.2076 28.5374 35.3101H28.5299ZM23.9999 28.0501C24.5849 28.7176 25.5149 29.9626 25.7924 31.4026C25.5674 31.5676 25.3574 31.7401 25.1549 31.9426C24.6449 32.4526 24.2774 33.0376 23.9999 33.6376C23.7224 33.0376 23.3549 32.4451 22.8449 31.9426C22.6424 31.7401 22.4324 31.5676 22.2074 31.4101C22.4924 29.9626 23.4074 28.7176 23.9999 28.0576V28.0501ZM21.7799 33.0001C22.8824 34.1026 23.1599 35.7976 23.2274 36.7651C22.2674 36.6976 20.5649 36.4126 19.4624 35.3176C18.3599 34.2226 18.0824 32.5126 18.0149 31.5526C18.9749 31.6201 20.6699 31.8976 21.7799 33.0076V33.0001Z" fill="#8CBC4F"/>
<path d="M40.4175 13.1625L37.5 7.32V4.5C37.5 3.2625 36.4875 2.25 35.25 2.25H12.75C11.5125 2.25 10.5 3.2625 10.5 4.5V7.32L7.5825 13.1625C7.53 13.2675 7.5 13.38 7.5 13.5V43.5C7.5 44.7375 8.5125 45.75 9.75 45.75H38.25C39.4875 45.75 40.5 44.7375 40.5 43.5V13.5C40.5 13.38 40.47 13.2675 40.4175 13.1625ZM38.535 12.75H27V8.25H36.285L38.535 12.75ZM36 4.5V6.75H27V3.75H35.25C35.6625 3.75 36 4.0875 36 4.5ZM25.5 3.75V17.25H22.5V3.75H25.5ZM12.75 3.75H21V6.75H12V4.5C12 4.0875 12.3375 3.75 12.75 3.75ZM11.715 8.25H21V12.75H9.465L11.715 8.25ZM38.25 44.25H9.75C9.3375 44.25 9 43.9125 9 43.5V14.25H21V18C21 18.4125 21.3375 18.75 21.75 18.75H26.25C26.6625 18.75 27 18.4125 27 18V14.25H39V43.5C39 43.9125 38.6625 44.25 38.25 44.25Z" fill="#8CBC4F"/>
</svg>
