<svg width="48" height="48" viewBox="0 0 48 48" fill="none" xmlns="http://www.w3.org/2000/svg">
<path d="M44.8904 9.49009L36.319 6.06151C36.1143 5.9795 35.8859 5.9795 35.6812 6.06151L27.1098 9.49009C26.9509 9.55376 26.8147 9.66356 26.7188 9.80533C26.6229 9.94709 26.5716 10.1143 26.5715 10.2855V19.1449C26.576 20.7728 26.9996 22.3721 27.8016 23.7887C28.6036 25.2053 29.7569 26.3915 31.1504 27.2329L35.5595 29.8781C35.6926 29.9579 35.8449 30 36.0001 30C36.1553 30 36.3076 29.9579 36.4407 29.8781L40.2858 27.5707V37.1707C40.2854 37.5433 40.1371 37.9006 39.8736 38.1642C39.6101 38.4277 39.2528 38.5759 38.8801 38.5764H5.69153C5.31885 38.5759 4.96157 38.4277 4.69804 38.1642C4.43452 37.9006 4.28627 37.5433 4.28582 37.1707V17.9998H24.0001C24.2274 17.9998 24.4455 17.9095 24.6062 17.7488C24.7669 17.588 24.8573 17.37 24.8573 17.1427C24.8573 16.9153 24.7669 16.6973 24.6062 16.5366C24.4455 16.3758 24.2274 16.2855 24.0001 16.2855H4.28582V14.2627C4.28627 13.89 4.43452 13.5327 4.69804 13.2692C4.96157 13.0056 5.31885 12.8574 5.69153 12.8569H24.0001C24.2274 12.8569 24.4455 12.7666 24.6062 12.6059C24.7669 12.4451 24.8573 12.2271 24.8573 11.9998C24.8573 11.7725 24.7669 11.5545 24.6062 11.3937C24.4455 11.233 24.2274 11.1427 24.0001 11.1427H5.69153C4.8642 11.1431 4.07088 11.472 3.48586 12.057C2.90085 12.642 2.57199 13.4353 2.57153 14.2627V37.1655C2.57199 37.9929 2.90085 38.7862 3.48586 39.3712C4.07088 39.9562 4.8642 40.2851 5.69153 40.2855H38.8801C39.7074 40.2851 40.5008 39.9562 41.0858 39.3712C41.6708 38.7862 41.9997 37.9929 42.0001 37.1655V26.3998C43.0679 25.5145 43.9283 24.4057 44.5207 23.1515C45.1131 21.8974 45.4231 20.5285 45.4287 19.1415V10.2855C45.4286 10.1143 45.3773 9.94709 45.2814 9.80533C45.1855 9.66356 45.0493 9.55376 44.8904 9.49009ZM43.7144 19.1449C43.7109 20.4769 43.3642 21.7856 42.7078 22.9446C42.0514 24.1036 41.1075 25.074 39.967 25.7621L36.0001 28.1432L32.0333 25.7621C30.8927 25.074 29.9488 24.1036 29.2924 22.9446C28.636 21.7856 28.2893 20.4769 28.2858 19.1449V10.8649L36.0001 7.77923L43.7144 10.8649V19.1449Z" fill="#8CBC4F"/>
<path d="M33.1783 16.683C33.0988 16.6033 33.0043 16.5401 32.9002 16.4969C32.7962 16.4537 32.6847 16.4315 32.5721 16.4314C32.4595 16.4313 32.3479 16.4534 32.2438 16.4964C32.1398 16.5395 32.0452 16.6026 31.9655 16.6822C31.8858 16.7617 31.8226 16.8562 31.7794 16.9603C31.7362 17.0643 31.7139 17.1758 31.7139 17.2884C31.7138 17.401 31.7359 17.5126 31.7789 17.6166C31.8219 17.7207 31.885 17.8153 31.9646 17.895L34.2515 20.1802C34.4122 20.3408 34.6302 20.4311 34.8575 20.4311C35.0848 20.4311 35.3028 20.3408 35.4635 20.1802L40.0355 15.6082C40.1962 15.4472 40.2864 15.229 40.2863 15.0015C40.2861 14.7741 40.1956 14.556 40.0346 14.3953C39.8737 14.2346 39.6555 14.1444 39.428 14.1445C39.2006 14.1447 38.9825 14.2352 38.8218 14.3962L34.8566 18.363L33.1783 16.683Z" fill="#8CBC4F"/>
<path d="M8.5715 33.4282C8.34417 33.4282 8.12615 33.5185 7.96541 33.6793C7.80466 33.84 7.71436 34.058 7.71436 34.2854C7.71436 34.5127 7.80466 34.7307 7.96541 34.8915C8.12615 35.0522 8.34417 35.1425 8.5715 35.1425H15.4286C15.656 35.1425 15.874 35.0522 16.0347 34.8915C16.1955 34.7307 16.2858 34.5127 16.2858 34.2854C16.2858 34.058 16.1955 33.84 16.0347 33.6793C15.874 33.5185 15.656 33.4282 15.4286 33.4282H8.5715Z" fill="#8CBC4F"/>
</svg>
