<svg width="48" height="48" viewBox="0 0 48 48" fill="none" xmlns="http://www.w3.org/2000/svg">
<path d="M29.4281 20.2306L22.7737 25.9815L19.5801 22.9752C19.226 22.6417 18.6431 22.6341 18.2789 22.9581C17.9144 23.2824 17.9061 23.8155 18.2602 24.149L22.0905 27.7468C22.4463 28.0744 23.0214 28.0856 23.392 27.7719L30.7112 21.4551C30.889 21.3017 30.9928 21.0899 30.9996 20.8666C31.0065 20.6432 30.916 20.4265 30.748 20.2642C30.3918 19.9254 29.8045 19.9106 29.4281 20.2306Z" fill="#8CBC4F"/>
<path d="M23.9998 10C16.2784 10 10 16.2784 10 23.9998C10 31.7216 16.2784 38 23.9998 38C31.7216 38 38 31.7216 38 23.9998C38 16.2784 31.7216 10 23.9998 10ZM23.9998 36.1258C17.3092 36.1258 11.8742 30.6813 11.8742 23.9998C11.8742 17.3184 17.3092 11.8742 23.9998 11.8742C30.697 11.8742 36.1258 17.303 36.1258 23.9998C36.1258 30.6966 30.697 36.1258 23.9998 36.1258Z" fill="#8CBC4F"/>
<path d="M42.867 18.959L43.1698 13.5214C43.191 13.1564 42.9925 12.8137 42.6653 12.6503L37.8211 10.2021L35.3717 5.36057C35.205 5.03641 34.8642 4.83905 34.5001 4.85625L29.0504 5.14996L24.5091 2.15124C24.203 1.94959 23.8063 1.94959 23.4999 2.15124L18.9586 5.14996L13.5185 4.84729C13.153 4.8258 12.8104 5.02423 12.647 5.35161L10.1971 10.1932L5.35337 12.6414C5.02869 12.8076 4.83159 13.1482 4.84879 13.5125L5.15125 18.9501L2.15132 23.489C1.94956 23.7949 1.94956 24.1914 2.15132 24.4976L5.14229 29.0455L4.83947 34.4831C4.81833 34.848 5.01651 35.1908 5.34406 35.3542L10.1882 37.8023L12.6376 42.6439C12.8039 42.9684 13.1447 43.1654 13.5092 43.1482L18.9496 42.8456L23.4909 45.8439C23.7952 46.052 24.1959 46.052 24.5001 45.8439L29.0414 42.8456L34.4818 43.1482C34.847 43.1694 35.1896 42.9709 35.3534 42.6439L37.8029 37.8023L42.647 35.3542C42.9713 35.1876 43.1688 34.8473 43.1516 34.4831L42.8487 29.0455L45.8487 24.5066C46.0504 24.2007 46.0504 23.8038 45.8487 23.4979L42.867 18.959ZM41.1605 28.2936C41.0486 28.4577 40.9967 28.655 41.0139 28.8531L41.2981 33.997L36.7202 36.3076C36.5457 36.395 36.4041 36.5369 36.3167 36.7113L34.0045 41.2868L28.8579 41.0027C28.6608 40.9955 28.4662 41.0464 28.2981 41.1492L24.0045 43.9828L19.7112 41.1492C19.5621 41.0486 19.3865 40.9941 19.2066 40.9934H19.1607L14.0138 41.2778L11.7019 36.702C11.6145 36.5276 11.4729 36.3861 11.298 36.2987L6.71089 33.997L6.99543 28.8531C7.0026 28.6561 6.95135 28.4616 6.8485 28.2936L4.01378 24.0022L6.8485 19.7108C6.96067 19.5471 7.01264 19.3494 6.99543 19.1517L6.71089 14.0075L11.2891 11.6968C11.4636 11.6094 11.6052 11.468 11.6926 11.2935L14.0045 6.71773L19.1514 7.00212C19.3482 7.00893 19.5427 6.95807 19.7112 6.85527L24.0045 4.02204L28.2981 6.85527C28.4623 6.96738 28.6601 7.01932 28.8579 7.00212L34.0045 6.71773L36.3167 11.2935C36.4041 11.468 36.5457 11.6094 36.7202 11.6968L41.2981 14.0075L41.0139 19.1517C41.0067 19.3484 41.058 19.5429 41.1605 19.7108L43.9955 24.0022L41.1605 28.2936Z" fill="#8CBC4F"/>
</svg>
